<svg version="1.1" xmlns="http://www.w3.org/2000/svg" width="249" height="249" viewBox="0 0 2490 2491"><path d="M0,0 L4,0 L17,25 L29,47 L40,67 L55,91 L67,108 L81,127 L92,140 L101,151 L115,166 L124,176 L137,189 L145,196 L158,208 L169,217 L184,229 L203,243 L221,255 L242,268 L263,280 L284,291 L313,304 L344,316 L375,326 L406,334 L435,340 L448,342 L475,344 L475,436 L474,456 L454,456 L425,453 L397,448 L355,438 L328,430 L298,420 L268,408 L235,393 L213,382 L190,369 L170,357 L143,339 L129,329 L108,313 L97,304 L84,293 L73,283 L65,276 L58,269 L50,262 L39,251 L32,243 L25,236 L18,228 L5,213 L-6,199 L-20,181 L-32,164 L-44,146 L-50,136 L-59,138 L-147,167 L-190,181 L-215,189 L-209,201 L-197,221 L-185,240 L-168,265 L-158,279 L-142,300 L-134,310 L-125,321 L-114,334 L-105,344 L-98,352 L-84,367 L-51,400 L-43,407 L-31,418 L-20,427 L-6,439 L8,450 L29,466 L52,482 L67,492 L86,504 L101,513 L122,525 L154,542 L188,558 L219,571 L254,584 L294,597 L331,607 L373,616 L408,622 L476,631 L476,1020 L459,1019 L397,1013 L350,1007 L308,1000 L263,991 L199,975 L156,962 L114,948 L77,934 L48,922 L23,911 L-3,899 L-32,885 L-51,875 L-80,859 L-104,845 L-127,831 L-144,820 L-168,804 L-188,790 L-206,777 L-227,761 L-241,750 L-257,737 L-270,726 L-281,717 L-293,706 L-301,699 L-313,688 L-326,676 L-375,627 L-382,619 L-396,604 L-405,593 L-416,581 L-425,570 L-439,553 L-452,536 L-466,518 L-479,500 L-493,480 L-509,456 L-523,434 L-540,406 L-556,378 L-570,352 L-584,325 L-597,297 L-609,271 L-623,238 L-633,211 L-633,208 L-592,194 L-529,173 L-527,173 L-519,193 L-508,219 L-492,254 L-476,287 L-464,309 L-451,333 L-435,360 L-420,384 L-398,417 L-386,434 L-372,453 L-359,470 L-348,484 L-334,501 L-322,515 L-310,529 L-296,544 L-287,554 L-275,566 L-268,574 L-256,586 L-248,593 L-236,605 L-228,612 L-215,624 L-204,633 L-193,643 L-179,654 L-166,665 L-150,677 L-129,693 L-113,704 L-90,720 L-74,730 L-55,742 L-33,755 L-12,767 L16,782 L52,800 L83,814 L119,829 L160,844 L196,856 L237,868 L285,880 L335,890 L364,895 L364,729 L336,724 L293,714 L251,702 L214,690 L177,676 L146,663 L118,650 L99,641 L80,631 L58,619 L31,603 L7,588 L-18,571 L-35,559 L-56,543 L-69,533 L-80,524 L-93,513 L-104,504 L-118,491 L-126,484 L-142,469 L-171,440 L-178,432 L-193,416 L-202,405 L-211,395 L-222,381 L-232,369 L-244,353 L-257,335 L-269,318 L-286,292 L-300,269 L-315,243 L-332,211 L-347,180 L-362,147 L-373,123 L-371,121 L-301,98 L-258,84 L-203,66 L-160,52 L-105,34 L-62,20 L-7,2 Z " fill="#6A60C0" transform="translate(713,1471)" /><path d="M0,0 L11,3 L104,34 L106,35 L104,44 L94,69 L83,92 L69,116 L57,136 L41,160 L28,178 L14,196 L3,209 L-6,220 L-20,235 L-29,245 L-50,266 L-58,273 L-71,285 L-82,294 L-95,305 L-115,320 L-133,333 L-159,350 L-179,362 L-197,372 L-220,384 L-245,396 L-279,410 L-313,422 L-347,432 L-361,435 L-361,609 L-320,600 L-283,590 L-234,574 L-193,558 L-164,545 L-131,529 L-105,515 L-78,499 L-54,484 L-35,471 L-21,461 L-2,447 L14,434 L24,426 L37,415 L51,403 L68,387 L75,380 L83,373 L99,356 L108,347 L115,339 L125,328 L134,317 L145,304 L158,287 L173,267 L187,247 L200,227 L213,206 L226,183 L240,157 L258,120 L271,92 L273,88 L284,91 L351,113 L401,129 L474,153 L524,169 L594,192 L641,207 L643,208 L640,217 L624,254 L610,286 L592,324 L574,359 L561,382 L545,410 L530,434 L514,459 L500,479 L487,498 L477,511 L468,523 L458,536 L445,552 L437,562 L426,575 L414,589 L403,601 L396,609 L384,622 L376,630 L369,638 L342,665 L334,672 L324,682 L316,689 L303,701 L292,710 L281,720 L270,729 L254,742 L237,755 L219,769 L202,781 L185,793 L152,815 L133,827 L113,839 L89,853 L65,866 L42,878 L8,895 L-28,911 L-56,923 L-98,939 L-151,957 L-203,972 L-252,984 L-302,994 L-352,1002 L-402,1008 L-449,1012 L-471,1012 L-472,1008 L-472,900 L-439,898 L-384,892 L-338,885 L-300,878 L-256,868 L-214,857 L-172,844 L-134,831 L-98,817 L-67,804 L-39,791 L-14,779 L19,762 L42,749 L69,733 L93,718 L127,695 L141,685 L160,671 L173,661 L187,650 L198,641 L211,630 L222,621 L235,609 L243,602 L256,590 L263,583 L271,576 L294,553 L301,545 L310,536 L317,528 L328,516 L337,505 L346,495 L357,481 L367,469 L377,456 L389,440 L402,422 L415,403 L425,388 L439,366 L451,346 L466,320 L480,294 L489,277 L453,265 L398,247 L348,231 L331,225 L329,231 L315,256 L301,279 L287,301 L276,317 L264,334 L250,353 L239,367 L226,383 L215,396 L203,410 L189,425 L180,435 L140,475 L132,482 L119,494 L108,503 L98,512 L84,523 L68,536 L49,550 L31,563 L7,579 L-15,593 L-42,609 L-60,619 L-88,634 L-119,649 L-151,663 L-184,676 L-212,686 L-249,698 L-286,708 L-324,717 L-367,725 L-410,731 L-470,738 L-473,738 L-474,342 L-411,331 L-373,322 L-344,313 L-313,302 L-281,288 L-253,274 L-229,260 L-211,249 L-192,236 L-173,222 L-162,213 L-151,204 L-141,195 L-133,188 L-117,173 L-107,163 L-100,155 L-88,142 L-79,131 L-67,116 L-54,98 L-36,71 L-23,49 L-13,31 L-3,7 Z " fill="#684CB5" transform="translate(1770,1476)" /><path d="M0,0 L4,4 L17,22 L31,41 L45,60 L59,79 L66,88 L66,92 L54,101 L40,113 L29,123 L21,130 L9,141 L-4,153 L-50,199 L-57,207 L-71,222 L-80,233 L-90,244 L-99,255 L-112,271 L-122,284 L-138,305 L-150,322 L-164,342 L-179,365 L-191,384 L-207,411 L-221,436 L-239,470 L-255,503 L-270,537 L-284,572 L-295,602 L-307,638 L-316,667 L-327,709 L-337,753 L-346,803 L-352,848 L-356,888 L-358,919 L-359,943 L-359,1010 L-357,1052 L-353,1097 L-347,1143 L-345,1160 L-274,1137 L-219,1119 L-188,1109 L-189,1094 L-193,1054 L-195,1021 L-195,936 L-192,891 L-187,847 L-179,798 L-171,760 L-161,720 L-148,677 L-136,642 L-121,604 L-107,572 L-93,543 L-80,517 L-67,494 L-50,465 L-39,448 L-23,424 L-11,407 L3,388 L14,374 L27,358 L38,345 L50,331 L64,316 L75,304 L110,269 L118,262 L135,246 L147,235 L161,222 L164,222 L177,240 L191,259 L204,277 L218,296 L231,314 L244,332 L258,351 L271,369 L285,388 L298,406 L312,425 L325,443 L338,461 L352,480 L365,498 L379,517 L392,535 L396,541 L389,549 L358,580 L351,588 L339,601 L330,612 L318,627 L305,645 L293,663 L280,684 L264,713 L251,740 L239,769 L229,797 L220,827 L211,865 L205,901 L202,928 L200,961 L200,995 L202,1028 L205,1056 L210,1081 L214,1097 L145,1119 L110,1130 L106,1129 L99,1104 L94,1078 L90,1045 L88,1021 L87,1001 L87,954 L89,920 L93,884 L100,843 L107,812 L115,782 L127,745 L142,707 L157,674 L167,654 L180,631 L193,609 L203,594 L214,578 L228,559 L239,545 L249,533 L247,528 L233,509 L220,491 L206,472 L193,454 L180,436 L166,417 L153,399 L148,392 L143,397 L129,412 L120,423 L108,437 L98,450 L82,471 L71,487 L53,514 L40,535 L28,556 L16,578 L6,597 L-7,625 L-21,658 L-34,693 L-46,729 L-58,773 L-67,814 L-74,855 L-79,896 L-82,936 L-83,970 L-83,987 L-82,1020 L-79,1061 L-74,1101 L-67,1142 L-59,1183 L-59,1186 L-95,1198 L-166,1221 L-218,1238 L-268,1254 L-335,1276 L-385,1292 L-428,1306 L-430,1303 L-446,1232 L-454,1190 L-461,1145 L-466,1104 L-470,1055 L-472,1011 L-472,942 L-470,898 L-466,850 L-461,808 L-454,763 L-446,721 L-435,673 L-423,629 L-409,584 L-395,544 L-378,501 L-366,473 L-354,447 L-342,422 L-329,396 L-317,374 L-303,349 L-286,321 L-272,299 L-254,272 L-240,252 L-226,233 L-211,213 L-198,197 L-190,187 L-181,176 L-169,162 L-157,148 L-143,133 L-134,123 L-126,115 L-119,107 L-88,76 L-80,69 L-71,60 L-63,53 L-51,42 L-43,35 L-29,23 L-15,11 Z " fill="#6A80D2" transform="translate(472,270)" /><path d="M0,0 L4,1 L17,13 L28,22 L42,35 L53,44 L60,51 L68,58 L84,73 L133,122 L140,130 L153,144 L160,152 L172,166 L183,179 L194,193 L207,209 L219,225 L233,244 L245,261 L271,300 L283,319 L299,346 L312,369 L325,393 L340,422 L353,450 L364,474 L379,510 L394,550 L410,597 L424,645 L437,697 L446,740 L454,788 L460,834 L464,876 L467,928 L467,1017 L465,1057 L461,1103 L455,1152 L448,1195 L438,1245 L429,1284 L422,1308 L413,1306 L357,1288 L316,1275 L315,1271 L322,1245 L332,1198 L340,1153 L346,1109 L351,1058 L353,1023 L354,987 L354,961 L353,924 L350,877 L346,838 L340,794 L332,750 L324,713 L314,673 L302,632 L288,590 L274,553 L262,524 L249,495 L235,466 L222,440 L209,417 L195,392 L182,371 L168,349 L153,327 L141,310 L127,291 L113,273 L100,257 L89,243 L79,232 L70,221 L63,214 L56,206 L42,191 L26,175 L21,170 L18,168 L5,186 L-8,204 L-22,223 L-35,241 L-48,259 L-61,277 L-75,296 L-78,300 L-76,304 L-65,315 L-58,323 L-48,334 L-39,345 L-27,359 L-16,373 L-2,391 L11,409 L22,425 L32,440 L46,462 L62,489 L78,518 L88,537 L99,560 L112,589 L128,629 L138,657 L151,697 L161,734 L169,767 L178,814 L184,855 L188,894 L190,923 L191,948 L191,1003 L189,1043 L185,1086 L178,1135 L168,1187 L161,1223 L156,1224 L101,1206 L51,1190 L2,1174 L-48,1158 L-97,1142 L-147,1126 L-215,1104 L-216,1103 L-215,1090 L-208,1041 L-205,1008 L-204,970 L-205,941 L-208,907 L-214,868 L-222,832 L-231,801 L-242,769 L-254,740 L-267,712 L-279,690 L-295,663 L-312,638 L-324,622 L-335,608 L-347,594 L-358,582 L-365,574 L-376,563 L-387,554 L-395,548 L-394,543 L-380,525 L-370,511 L-356,492 L-342,473 L-330,457 L-326,458 L-310,471 L-296,483 L-276,503 L-269,511 L-260,521 L-251,532 L-240,545 L-225,565 L-212,583 L-199,603 L-182,631 L-167,659 L-152,690 L-139,721 L-126,757 L-117,787 L-107,827 L-100,864 L-95,901 L-92,938 L-92,1025 L-27,1046 L41,1068 L72,1078 L76,1039 L78,1002 L78,948 L76,911 L72,870 L66,829 L57,784 L48,748 L38,714 L25,676 L12,643 L-2,611 L-18,578 L-30,556 L-43,533 L-58,509 L-76,482 L-89,464 L-101,448 L-112,434 L-123,421 L-132,410 L-144,397 L-151,389 L-166,373 L-186,353 L-194,346 L-202,338 L-210,331 L-217,324 L-225,317 L-227,313 L-214,295 L-201,277 L-187,258 L-174,240 L-161,222 L-148,204 L-134,185 L-121,167 L-108,149 L-94,130 L-81,112 L-68,94 L-54,75 L-41,57 L-28,39 L-15,21 L-1,2 Z " fill="#60B3EE" transform="translate(2023,271)" /><path d="M0,0 L69,0 L114,2 L162,6 L211,12 L260,20 L305,29 L342,38 L376,47 L419,60 L460,74 L499,89 L528,101 L557,114 L591,130 L624,147 L647,160 L665,170 L687,183 L708,196 L724,207 L724,210 L712,227 L699,245 L687,262 L674,280 L664,294 L660,299 L655,297 L645,290 L625,278 L599,263 L570,247 L537,230 L509,217 L475,202 L445,190 L415,179 L380,167 L343,156 L305,146 L266,137 L218,128 L169,121 L118,116 L84,114 L53,113 L11,113 L-37,115 L-85,119 L-133,125 L-180,133 L-222,142 L-262,152 L-293,161 L-328,172 L-367,186 L-404,201 L-429,212 L-457,225 L-483,238 L-485,238 L-472,256 L-459,274 L-445,293 L-432,311 L-419,329 L-406,347 L-392,366 L-388,372 L-382,370 L-354,357 L-320,343 L-282,329 L-248,318 L-212,308 L-175,299 L-134,291 L-95,285 L-49,280 L-21,278 L1,277 L69,277 L107,279 L149,283 L198,290 L240,298 L278,307 L308,315 L346,327 L372,336 L410,351 L442,365 L477,382 L500,394 L523,407 L550,422 L564,430 L563,434 L551,451 L537,470 L527,484 L514,502 L501,520 L488,538 L474,557 L464,571 L451,589 L438,607 L425,625 L411,644 L401,658 L388,676 L375,694 L362,712 L348,731 L338,745 L334,751 L329,750 L300,736 L276,724 L245,711 L217,701 L191,693 L159,685 L127,679 L96,675 L72,673 L49,672 L22,672 L-14,674 L-49,678 L-83,684 L-112,691 L-140,699 L-169,709 L-198,721 L-227,735 L-242,744 L-251,750 L-256,745 L-269,727 L-282,709 L-294,692 L-307,674 L-317,660 L-317,658 L-302,648 L-282,636 L-263,626 L-229,611 L-195,598 L-158,586 L-128,578 L-90,570 L-50,564 L-20,561 L19,559 L50,559 L90,561 L128,565 L165,571 L202,579 L238,589 L274,601 L294,609 L297,609 L310,591 L323,573 L336,555 L349,537 L362,519 L376,500 L386,486 L397,471 L397,469 L368,456 L340,445 L312,435 L281,425 L244,415 L214,408 L171,400 L125,394 L89,391 L71,390 L0,390 L-34,392 L-80,397 L-118,403 L-158,411 L-201,422 L-239,434 L-265,443 L-300,457 L-329,470 L-356,483 L-378,495 L-402,508 L-420,518 L-422,518 L-434,501 L-447,483 L-461,464 L-474,446 L-487,428 L-500,410 L-514,391 L-527,373 L-540,355 L-553,337 L-567,318 L-580,300 L-593,282 L-607,263 L-617,249 L-630,231 L-644,212 L-649,205 L-648,202 L-621,186 L-594,170 L-573,158 L-551,146 L-528,134 L-494,117 L-458,101 L-422,86 L-376,69 L-324,52 L-277,39 L-240,30 L-196,21 L-149,13 L-93,6 L-44,2 Z " fill="#67A0E3" transform="translate(1209,0)" /></svg>